<svg width="25" height="25" viewBox="0 0 25 25" fill="none" xmlns="http://www.w3.org/2000/svg">
<path d="M12.5001 0.052002C5.59655 0.052002 0 5.64855 0 12.5521C0 18.7437 4.50652 23.8715 10.4153 24.8644V15.1599H7.39993V11.6677H10.4153V9.09263C10.4153 6.10484 12.2402 4.47666 14.9059 4.47666C16.1826 4.47666 17.2798 4.5718 17.5983 4.6137V7.73674L15.7494 7.73763C14.3 7.73763 14.0206 8.42624 14.0206 9.43709V11.6659H17.479L17.0279 15.1581H14.0206V24.9479C20.2052 24.1952 25 18.9368 25 12.5485C25 5.64855 19.4035 0.052002 12.5001 0.052002Z" fill="#8000FF"/>
</svg>
