<svg width="25" height="25" viewBox="0 0 25 25" fill="none" xmlns="http://www.w3.org/2000/svg">
<path d="M20.542 22.0068C18.3741 23.8379 15.5616 25 12.5 25C7.94437 25 3.94529 22.4902 1.77737 18.8281L2.589 15.0868L6.18655 14.4189C7.02151 17.1142 9.541 19.0918 12.5 19.0918C13.9355 19.0918 15.2686 18.6377 16.3672 17.832L19.8243 18.3594L20.542 22.0068Z" fill="#59C36A"/>
<path d="M20.542 22.0068L19.8242 18.3594L16.3672 17.832C15.2686 18.6377 13.9355 19.0918 12.5 19.0918V25C15.5616 25 18.374 23.8379 20.542 22.0068Z" fill="#00A66C"/>
<path d="M5.9082 12.5C5.9082 13.1738 6.01074 13.8183 6.18652 14.4189L1.77734 18.8281C0.678711 16.9824 0 14.8144 0 12.5C0 10.1855 0.678711 8.01758 1.77734 6.17188L5.31606 6.78091L6.18652 10.5811C6.01074 11.1816 5.9082 11.8261 5.9082 12.5Z" fill="#FFDA2D"/>
<path d="M25 12.5C25 16.3085 23.2374 19.7217 20.542 22.0068L16.3672 17.832C17.2167 17.2167 17.9346 16.3964 18.4033 15.4297H12.5C12.0898 15.4297 11.7676 15.1074 11.7676 14.6973V10.3027C11.7676 9.89253 12.0898 9.57031 12.5 9.57031H24.0625C24.4141 9.57031 24.7217 9.81929 24.7803 10.1708C24.9268 10.9326 25 11.7236 25 12.5Z" fill="#4086F4"/>
<path d="M18.4034 15.4297C17.9346 16.3964 17.2167 17.2167 16.3672 17.832L20.542 22.0068C23.2374 19.7217 25 16.3086 25 12.5C25 11.7236 24.9268 10.9326 24.7802 10.1708C24.7217 9.81929 24.414 9.57031 24.0625 9.57031H12.5V15.4297H18.4034Z" fill="#4175DF"/>
<path d="M20.7471 3.49116C20.7618 3.69624 20.6739 3.88672 20.542 4.03315L17.4073 7.15327C17.1583 7.41694 16.7481 7.44624 16.4552 7.22651C15.2978 6.3623 13.9355 5.9082 12.5 5.9082C9.541 5.9082 7.02151 7.88569 6.18655 10.5811L1.77737 6.17188C3.94529 2.50977 7.94437 0 12.5 0C15.4151 0 18.2569 1.07422 20.4834 2.94917C20.6446 3.08105 20.7325 3.28608 20.7471 3.49116Z" fill="#FF641A"/>
<path d="M16.4551 7.22651C16.748 7.44629 17.1582 7.41694 17.4072 7.15327L20.5419 4.03315C20.6738 3.88672 20.7617 3.69629 20.747 3.49116C20.7323 3.28604 20.6445 3.08105 20.4834 2.94917C18.2568 1.07422 15.415 0 12.5 0V5.9082C13.9355 5.9082 15.2978 6.3623 16.4551 7.22651Z" fill="#F03800"/>
</svg>
